<?xml version="1.0" encoding="utf-8"?>
<!-- Generator: Adobe Illustrator 23.0.1, SVG Export Plug-In . SVG Version: 6.00 Build 0)  -->
<svg version="1.1" id="Слой_1" xmlns="http://www.w3.org/2000/svg" xmlns:xlink="http://www.w3.org/1999/xlink" x="0px" y="0px"
	 viewBox="0 0 1440 718" style="enable-background:new 0 0 1440 718;" xml:space="preserve">
<path style="fill:#3D2E87;" d="M0,547C0,366.5,0,186,0,5.5C0,3.67,0,1.83,0,0c0.03,0,4.97,0,5,0c0,0,1430.98,0,1431,0
	c1.33,0,2.67,0,4,0c0,1.83,0,3.67,0,5.5c0,188.5-0.03,377-0.09,565.5c-2.38-0.73-4.77-1.45-7.14-2.18
	c-149.09-46.16-301.54-73.08-457.49-79.94c-89.44-3.93-178.48-0.01-266.99,14.05c-58.44,9.29-115.83,22.87-171.64,42.61
	c-40.11,14.19-79.81,29.54-121.14,40.05c-77.01,19.57-154.85,27.96-234.15,18.56c-42.07-4.99-82.65-14.78-121.67-29.64
	c-30.21-11.5-55.11-24.92-55.11-24.92C2.61,548.5,1.02,547.59,0,547z"/>
<path style="fill:#6F2DB9;" d="M0,627c38.31,7.66,92.13,15.83,156.82,17.12c82.31,1.64,146.52-8.83,190.7-16.77
	C481.06,603.33,605.1,544.59,738,517.41c116.82-23.89,237.23-33.87,354.55-8.77c72.79,15.58,145.51,40.66,211.44,75.33
	c56.09,29.5,103.16,65.47,105.84,67.53c12.65,9.72,22.92,18.27,30.18,24.5c0,14,0,28,0,42c-40.65-29.11-96.54-65.41-166.61-100.46
	c-31.05-15.53-103.14-52.48-181.09-73.19c-123.92-32.93-251.35-26.6-375.79,1.15c-120.55,26.88-233.48,79.48-355.06,102.03
	c-59.56,11.04-120.58,17.57-181.14,18.37c-37.2,0.49-66.48-1.27-95.42-5.16C50.23,656.08,21.36,649.11,0,643
	C0,637.67,0,632.33,0,627z"/>
</svg>
