<?xml version="1.0" encoding="utf-8"?>
<!-- Generator: Adobe Illustrator 23.0.1, SVG Export Plug-In . SVG Version: 6.00 Build 0)  -->
<svg version="1.1" id="Layer_2" xmlns="http://www.w3.org/2000/svg" xmlns:xlink="http://www.w3.org/1999/xlink" x="0px" y="0px"
	 viewBox="0 0 825.67 536.26" style="enable-background:new 0 0 825.67 536.26;" xml:space="preserve">
<linearGradient id="SVGID_1_" gradientUnits="userSpaceOnUse" x1="409.2078" y1="12.982" x2="414.9678" y2="476.662">
	<stop  offset="0" style="stop-color:#3F2E8A"/>
	<stop  offset="1" style="stop-color:#862DD9"/>
</linearGradient>
<path style="fill:url(#SVGID_1_);" d="M825.67,333.76c0,111.84-90.66,202.5-202.5,202.5c-21,0-41.26-3.2-60.31-9.13
	c-36.98-11.52-62.31-31.17-75.93-43.55c-19.57-17.8-69.75-22.71-93.32-7.96c-23.75,14.87-45.42,23.04-60.01,27.57
	c0,0-37.22,11.55-76.45,11.55c-142.14,0-257.37-115.23-257.37-257.37S115.01,0,257.15,0c87.81,0,171.84,50.47,216.36,117.95
	c13.78,20.88,60.24,31.62,88.65,22.66c19.25-6.07,39.75-9.35,61.01-9.35C735.01,131.26,825.67,221.92,825.67,333.76z"/>
</svg>
