<?xml version="1.0" encoding="utf-8"?>
<!-- Generator: Adobe Illustrator 23.0.1, SVG Export Plug-In . SVG Version: 6.00 Build 0)  -->
<svg version="1.1" id="Layer_1" xmlns="http://www.w3.org/2000/svg" xmlns:xlink="http://www.w3.org/1999/xlink" x="0px" y="0px"
	 viewBox="0 0 1440 866.16" style="enable-background:new 0 0 1440 866.16;" xml:space="preserve">
<g>
	<path style="fill:#DDE4E7;" d="M1441,462.32c0,108.33,0,216.67,0,325c-2.77,0.7-6.01,0.13-8,2.96c-2,0-4.01,0.01-6.01,0.01
		c-0.98-0.6-1.89-1.45-2.95-1.75c-7.68-2.14-15.37-4.25-23.1-6.22c-42-10.69-84.12-20.84-126.61-29.45
		c-35.1-7.11-70.28-13.82-105.64-19.45c-26.33-4.19-52.68-8.27-79.19-11.26c-18.42-2.08-36.78-4.79-55.21-6.74
		c-16.31-1.73-32.72-2.48-49.03-4.22c-21.44-2.28-42.97-3.27-64.45-4.7c-15.72-1.05-31.52-1.87-47.26-1.99
		c-47.79-0.35-95.59-0.85-143.37,0.82c-0.5,0.02-1,0.05-1.5,0.08c-18.85,1.3-37.7,2.58-56.55,3.92c-9.26,0.66-18.53,1.22-27.76,2.18
		c-13.83,1.44-27.64,3.12-41.44,4.82c-13.81,1.7-27.64,3.26-41.38,5.39c-19.15,2.97-38.27,6.23-57.32,9.78
		c-4.12,0.77-9.01-0.14-12.25,3.78c-8.09-0.53-15.87,2.44-23.94,2.09c-5.33-0.21-10.59,0.42-15.89,0.87
		c-15.03,1.27-30.14,1.62-45.12,3.28c-20.07,2.21-40.17,4.13-60.22,6.61c-20.87,2.58-41.72,5.35-62.5,8.49
		c-27.18,4.11-54.29,8.85-81.3,14c-39.11,7.45-78.04,15.83-116.67,25.5C57.83,803.25,29.44,810.9,1,818.32c0-118.67,0-237.33,0-356
		C481,462.32,961,462.32,1441,462.32z"/>
	<path style="fill:#DEE5E8;" d="M1,443.17c480,0,960,0,1440,0c0,106.22,0,212.43,0,318.65c-2.56,0.82-5.55,0.46-7.38,3.24
		c-2,0-4,0.01-6.01,0.01c-0.99-0.55-1.92-1.34-2.99-1.61c-7.7-1.98-15.41-3.92-23.15-5.74c-42.08-9.87-84.27-19.24-126.8-27.19
		c-35.13-6.57-70.34-12.75-105.71-17.95c-26.34-3.87-52.7-7.64-79.21-10.4c-18.42-1.92-36.78-4.42-55.21-6.23
		c-16.31-1.59-32.71-2.29-49.01-3.89c-21.43-2.11-42.95-3.02-64.43-4.33c-15.72-0.96-31.51-1.73-47.24-1.84
		c-47.76-0.32-95.53-0.78-143.29,0.76c-0.5,0.02-1,0.04-1.5,0.07c-18.84,1.2-37.69,2.38-56.53,3.61
		c-9.26,0.61-18.52,1.13-27.75,2.01c-13.83,1.33-27.63,2.88-41.44,4.45c-13.81,1.57-27.64,3.01-41.38,4.97
		c-19.16,2.74-38.28,5.75-57.35,9.03c-4.14,0.71-8.99-0.13-12.32,3.49c-8.08-0.49-15.87,2.26-23.93,1.93
		c-5.32-0.2-10.59,0.39-15.88,0.8c-15.02,1.17-30.13,1.5-45.11,3.02c-20.07,2.04-40.16,3.82-60.21,6.1
		c-20.87,2.38-41.72,4.94-62.51,7.84c-27.19,3.79-54.31,8.17-81.34,12.92c-39.14,6.88-78.12,14.62-116.81,23.54
		C57.95,777.02,29.5,784.08,1,790.94C1,675.01,1,559.09,1,443.17z"/>
	<path style="fill:#DFE5E8;" d="M1,424.01c480,0,960,0,1440,0c0,104.1,0,208.2,0,312.3c-2.34,0.93-5.09,0.78-6.77,3.52
		c-2,0-4,0.01-6,0.01c-1-0.5-1.95-1.23-3.02-1.48c-7.72-1.81-15.44-3.6-23.2-5.26c-42.15-9.05-84.41-17.63-126.98-24.92
		c-35.17-6.02-70.4-11.69-105.79-16.46c-26.35-3.55-52.72-7-79.22-9.53c-18.42-1.76-36.78-4.06-55.21-5.71
		c-16.3-1.46-32.7-2.1-49-3.57c-21.43-1.93-42.94-2.76-64.41-3.97c-15.71-0.88-31.49-1.59-47.22-1.68
		c-47.73-0.29-95.48-0.72-143.21,0.69c-0.5,0.01-1,0.04-1.5,0.07c-18.84,1.1-37.67,2.18-56.51,3.31
		c-9.25,0.56-18.52,1.03-27.74,1.84c-13.83,1.22-27.63,2.64-41.43,4.08c-13.81,1.44-27.63,2.76-41.39,4.56
		c-19.17,2.51-38.3,5.27-57.38,8.28c-4.16,0.65-8.97-0.12-12.38,3.2c-8.07-0.45-15.88,2.07-23.93,1.76
		c-5.32-0.18-10.58,0.35-15.88,0.73c-15.02,1.08-30.11,1.37-45.09,2.77c-20.06,1.87-40.16,3.5-60.2,5.6
		c-20.87,2.19-41.72,4.53-62.52,7.19c-27.2,3.48-54.33,7.49-81.39,11.84c-39.17,6.31-78.19,13.4-116.96,21.58
		C58.06,750.8,29.56,757.27,1,763.55C1,650.37,1,537.19,1,424.01z"/>
	<path style="fill:#E0E6E9;" d="M1,404.86c480,0,960,0,1440,0c0,101.98,0,203.96,0,305.94c-2.13,1.05-4.63,1.11-6.15,3.8
		c-2,0-4,0.01-6,0.01c-1.02-0.46-1.98-1.12-3.06-1.34c-7.73-1.65-15.48-3.27-23.25-4.78c-42.23-8.23-84.56-16.03-127.17-22.65
		c-35.2-5.47-70.46-10.63-105.86-14.96c-26.36-3.23-52.74-6.37-79.24-8.67c-18.42-1.6-36.79-3.69-55.21-5.19
		c-16.3-1.33-32.68-1.91-48.99-3.25c-21.43-1.76-42.92-2.51-64.38-3.61c-15.7-0.8-31.47-1.44-47.19-1.53
		c-47.71-0.27-95.42-0.65-143.12,0.63c-0.5,0.01-1,0.04-1.49,0.06c-18.83,1-37.66,1.98-56.48,3.01c-9.25,0.5-18.51,0.94-27.73,1.68
		c-13.82,1.11-27.63,2.4-41.43,3.71c-13.81,1.31-27.63,2.51-41.39,4.14c-19.17,2.28-38.32,4.79-57.41,7.53
		c-4.18,0.59-8.95-0.11-12.45,2.91c-8.06-0.41-15.88,1.88-23.93,1.6c-5.31-0.17-10.58,0.32-15.87,0.67
		c-15.01,0.98-30.1,1.25-45.08,2.52c-20.06,1.7-40.15,3.18-60.2,5.09c-20.87,1.99-41.73,4.12-62.53,6.53
		c-27.21,3.16-54.36,6.81-81.43,10.77c-39.2,5.73-78.27,12.18-117.1,19.62C58.18,724.57,29.61,730.46,1,736.17
		C1,625.73,1,515.29,1,404.86z"/>
	<path style="fill:#E1E7E9;" d="M1,385.7c480,0,960,0,1440,0c0,99.86,0,199.73,0,299.59c-1.92,1.16-4.16,1.44-5.54,4.07
		c-2,0-4,0-5.99,0.01c-1.03-0.41-2.01-1.01-3.1-1.21c-7.75-1.48-15.51-2.94-23.3-4.31c-42.31-7.4-84.7-14.43-127.35-20.39
		c-35.24-4.92-70.52-9.56-105.94-13.46c-26.37-2.9-52.76-5.73-79.26-7.8c-18.42-1.44-36.79-3.32-55.21-4.67
		c-16.3-1.19-32.67-1.72-48.97-2.92c-21.42-1.58-42.91-2.26-64.36-3.25c-15.7-0.72-31.46-1.3-47.17-1.38
		c-47.68-0.24-95.37-0.59-143.04,0.57c-0.5,0.01-1,0.03-1.49,0.06c-18.82,0.9-37.64,1.79-56.46,2.71
		c-9.24,0.45-18.5,0.84-27.72,1.51c-13.82,0.99-27.63,2.16-41.43,3.34c-13.81,1.18-27.63,2.26-41.39,3.73
		c-19.18,2.05-38.33,4.32-57.44,6.77c-4.2,0.53-8.93-0.1-12.52,2.61c-8.05-0.37-15.89,1.69-23.93,1.44
		c-5.31-0.15-10.57,0.29-15.86,0.6c-15.01,0.88-30.08,1.12-45.06,2.27c-20.06,1.53-40.14,2.86-60.19,4.58
		c-20.87,1.79-41.73,3.7-62.53,5.88c-27.22,2.85-54.38,6.13-81.47,9.69c-39.23,5.16-78.35,10.96-117.25,17.66
		C58.3,698.35,29.67,703.64,1,708.78C1,601.09,1,493.4,1,385.7z"/>
	<path style="fill:#E2E7EA;" d="M1,366.55c480,0,960,0,1440,0c0,97.75,0,195.49,0,293.24c-1.7,1.28-3.7,1.77-4.92,4.35
		c-2,0-3.99,0-5.99,0.01c-1.04-0.37-2.04-0.89-3.13-1.08c-7.77-1.32-15.55-2.62-23.35-3.83c-42.39-6.58-84.85-12.83-127.54-18.12
		c-35.27-4.38-70.58-8.5-106.01-11.97c-26.38-2.58-52.78-5.09-79.27-6.93c-18.42-1.28-36.79-2.95-55.21-4.15
		c-16.3-1.06-32.66-1.53-48.96-2.6c-21.42-1.41-42.89-2.01-64.34-2.89c-15.69-0.64-31.44-1.15-47.14-1.22
		c-47.65-0.21-95.31-0.52-142.96,0.51c-0.5,0.01-1,0.03-1.49,0.05c-18.81,0.8-37.63,1.59-56.44,2.41
		c-9.24,0.4-18.49,0.75-27.71,1.34c-13.82,0.88-27.62,1.92-41.43,2.97c-13.81,1.04-27.63,2-41.4,3.31
		c-19.19,1.83-38.35,3.84-57.47,6.02c-4.22,0.47-8.91-0.08-12.59,2.32c-8.04-0.33-15.89,1.5-23.92,1.28
		c-5.3-0.13-10.57,0.26-15.86,0.53c-15.01,0.78-30.07,1-45.04,2.02c-20.06,1.36-40.14,2.54-60.18,4.07
		c-20.87,1.59-41.73,3.29-62.54,5.23c-27.23,2.53-54.4,5.44-81.52,8.61c-39.27,4.59-78.42,9.74-117.39,15.7
		c-28.77,4.39-57.46,9.1-86.19,13.67C1,576.45,1,471.5,1,366.55z"/>
	<path style="fill:#E3E8EB;" d="M1,347.4c480,0,960,0,1440,0c0,95.63,0,191.26,0,286.89c-1.49,1.39-3.24,2.09-4.31,4.63
		c-2,0-3.99,0-5.99,0.01c-1.05-0.32-2.07-0.78-3.17-0.94c-7.79-1.15-15.58-2.29-23.4-3.35c-42.47-5.76-85-11.22-127.73-15.86
		c-35.3-3.83-70.65-7.44-106.09-10.47c-26.39-2.26-52.8-4.46-79.29-6.07c-18.41-1.12-36.79-2.58-55.21-3.63
		c-16.3-0.93-32.65-1.34-48.94-2.27c-21.41-1.23-42.87-1.76-64.31-2.53c-15.69-0.56-31.42-1.01-47.12-1.07
		c-47.63-0.19-95.26-0.46-142.88,0.44c-0.5,0.01-1,0.03-1.49,0.04c-18.81,0.7-37.61,1.39-56.42,2.11
		c-9.24,0.35-18.48,0.66-27.7,1.17c-13.82,0.77-27.62,1.68-41.42,2.59c-13.81,0.91-27.63,1.75-41.4,2.9
		c-19.19,1.6-38.37,3.36-57.5,5.27c-4.24,0.41-8.89-0.07-12.65,2.03c-8.03-0.29-15.9,1.32-23.92,1.12
		c-5.3-0.12-10.57,0.23-15.85,0.47c-15,0.68-30.05,0.87-45.03,1.76c-20.06,1.19-40.13,2.23-60.17,3.56
		c-20.87,1.39-41.73,2.88-62.55,4.57c-27.23,2.21-54.42,4.76-81.56,7.54c-39.3,4.01-78.5,8.53-117.53,13.73
		C58.53,645.9,29.78,650.02,1,654.01C1,551.81,1,449.6,1,347.4z"/>
	<path style="fill:#E3E9EB;" d="M1,328.24c480,0,960,0,1440,0c0,93.51,0,187.02,0,280.53c-1.28,1.51-2.78,2.42-3.69,4.91
		c-1.99,0-3.99,0-5.98,0c-1.07-0.28-2.1-0.67-3.2-0.81c-7.81-0.99-15.62-1.96-23.44-2.87c-42.54-4.94-85.14-9.62-127.91-13.59
		c-35.34-3.28-70.71-6.38-106.16-8.98c-26.4-1.94-52.82-3.82-79.3-5.2c-18.41-0.96-36.79-2.21-55.21-3.11
		c-16.29-0.8-32.64-1.15-48.93-1.95c-21.41-1.05-42.86-1.51-64.29-2.17c-15.68-0.48-31.4-0.87-47.1-0.92
		c-47.6-0.16-95.2-0.39-142.8,0.38c-0.5,0.01-0.99,0.02-1.49,0.04c-18.8,0.6-37.6,1.19-56.39,1.81c-9.23,0.3-18.47,0.56-27.7,1.01
		c-13.81,0.66-27.62,1.44-41.42,2.22c-13.81,0.78-27.63,1.5-41.4,2.49c-19.2,1.37-38.38,2.88-57.54,4.52
		c-4.26,0.35-8.87-0.06-12.72,1.74c-8.02-0.24-15.9,1.13-23.92,0.96c-5.3-0.1-10.56,0.19-15.85,0.4c-15,0.59-30.04,0.75-45.01,1.51
		c-20.05,1.02-40.12,1.91-60.17,3.05c-20.87,1.19-41.73,2.47-62.56,3.92c-27.24,1.9-54.45,4.08-81.61,6.46
		c-39.33,3.44-78.57,7.31-117.68,11.77C58.65,619.67,29.84,623.2,1,626.63C1,527.17,1,427.7,1,328.24z"/>
	<path style="fill:#E4EAEC;" d="M1,309.09c480,0,960,0,1440,0c0,91.39,0,182.79,0,274.18c-1.07,1.62-2.31,2.75-3.08,5.19
		c-1.99,0-3.99,0-5.98,0c-1.08-0.23-2.13-0.56-3.24-0.67c-7.82-0.82-15.65-1.64-23.49-2.39c-42.62-4.11-85.29-8.02-128.1-11.33
		c-35.37-2.74-70.77-5.31-106.24-7.48c-26.41-1.61-52.84-3.18-79.32-4.33c-18.41-0.8-36.8-1.84-55.21-2.59
		c-16.29-0.66-32.62-0.95-48.92-1.62c-21.4-0.88-42.84-1.26-64.27-1.81c-15.68-0.4-31.39-0.72-47.07-0.77
		c-47.57-0.13-95.15-0.33-142.72,0.32c-0.5,0.01-0.99,0.02-1.49,0.03c-18.79,0.5-37.58,0.99-56.37,1.51
		c-9.23,0.25-18.47,0.47-27.69,0.84c-13.81,0.55-27.62,1.2-41.42,1.85c-13.81,0.65-27.62,1.25-41.4,2.07
		c-19.21,1.14-38.4,2.4-57.57,3.76c-4.28,0.3-8.85-0.05-12.79,1.45c-8.01-0.2-15.91,0.94-23.91,0.8
		c-5.29-0.08-10.56,0.16-15.84,0.33c-14.99,0.49-30.02,0.62-45,1.26c-20.05,0.85-40.12,1.59-60.16,2.54
		c-20.87,0.99-41.73,2.06-62.56,3.27c-27.25,1.58-54.47,3.4-81.65,5.38c-39.36,2.87-78.65,6.09-117.82,9.81
		c-28.92,2.75-57.79,5.69-86.69,8.54C1,502.53,1,405.81,1,309.09z"/>
	<path style="fill:#E5EAED;" d="M1,289.94c480,0,960,0,1440,0c0,89.28,0,178.55,0,267.83c-0.85,1.73-1.85,3.08-2.46,5.47
		c-1.99,0-3.99,0-5.98,0c-1.09-0.18-2.16-0.45-3.28-0.54c-7.84-0.66-15.69-1.31-23.54-1.91c-42.7-3.29-85.43-6.41-128.28-9.06
		c-35.4-2.19-70.83-4.25-106.32-5.98c-26.42-1.29-52.86-2.55-79.33-3.47c-18.41-0.64-36.8-1.47-55.21-2.08
		c-16.29-0.53-32.61-0.76-48.9-1.3c-21.4-0.7-42.83-1.01-64.24-1.44c-15.67-0.32-31.37-0.58-47.05-0.61
		c-47.54-0.11-95.09-0.26-142.63,0.25c-0.5,0.01-0.99,0.01-1.49,0.02c-18.78,0.4-37.57,0.79-56.35,1.2
		c-9.23,0.2-18.46,0.38-27.68,0.67c-13.81,0.44-27.61,0.96-41.42,1.48c-13.81,0.52-27.62,1-41.41,1.66
		c-19.21,0.91-38.41,1.92-57.6,3.01c-4.3,0.24-8.83-0.04-12.85,1.16c-8-0.16-15.91,0.75-23.91,0.64
		c-5.29-0.07-10.56,0.13-15.84,0.27c-14.99,0.39-30.01,0.5-44.98,1.01c-20.05,0.68-40.11,1.27-60.15,2.03
		c-20.87,0.79-41.73,1.65-62.57,2.61c-27.26,1.26-54.49,2.72-81.7,4.31c-39.39,2.29-78.73,4.87-117.97,7.85
		c-28.97,2.2-57.91,4.55-86.86,6.83C1,477.88,1,383.91,1,289.94z"/>
	<path style="fill:#E6EBED;" d="M1,270.78c480,0,960,0,1440,0c0,87.16,0,174.32,0,261.48c-0.64,1.85-1.39,3.4-1.85,5.74
		c-1.99,0-3.98,0-5.97,0c-1.1-0.14-2.19-0.34-3.31-0.4c-7.86-0.49-15.72-0.98-23.59-1.44c-42.78-2.47-85.58-4.81-128.47-6.8
		c-35.44-1.64-70.89-3.19-106.39-4.49c-26.43-0.97-52.87-1.91-79.35-2.6c-18.41-0.48-36.8-1.11-55.21-1.56
		c-16.29-0.4-32.6-0.57-48.89-0.97c-21.4-0.53-42.81-0.75-64.22-1.08c-15.67-0.24-31.35-0.43-47.03-0.46
		c-47.52-0.08-95.04-0.2-142.55,0.19c-0.5,0-0.99,0.01-1.49,0.02c-18.78,0.3-37.55,0.6-56.33,0.9c-9.22,0.15-18.45,0.28-27.67,0.5
		c-13.81,0.33-27.61,0.72-41.41,1.11c-13.81,0.39-27.62,0.75-41.41,1.24c-19.22,0.68-38.43,1.44-57.63,2.26
		c-4.32,0.18-8.81-0.03-12.92,0.87c-7.99-0.12-15.92,0.56-23.91,0.48c-5.28-0.05-10.55,0.1-15.83,0.2
		c-14.98,0.29-29.99,0.37-44.96,0.76c-20.05,0.51-40.1,0.95-60.15,1.53c-20.87,0.6-41.73,1.23-62.58,1.96
		c-27.27,0.95-54.52,2.04-81.74,3.23c-39.42,1.72-78.8,3.65-118.11,5.89C59,541,30.01,542.76,1,544.47C1,453.24,1,362.01,1,270.78z"
		/>
	<path style="fill:#E7ECEE;" d="M1,251.63c480,0,960,0,1440,0c0,85.04,0,170.08,0,255.12c-0.43,1.96-0.93,3.73-1.23,6.02
		c-1.99,0-3.98,0-5.97,0c-1.12-0.09-2.22-0.22-3.35-0.27c-7.88-0.33-15.76-0.65-23.64-0.96c-42.85-1.65-85.73-3.21-128.66-4.53
		c-35.47-1.09-70.95-2.13-106.47-2.99c-26.44-0.65-52.89-1.27-79.37-1.73c-18.41-0.32-36.8-0.74-55.21-1.04
		c-16.29-0.27-32.59-0.38-48.88-0.65c-21.39-0.35-42.8-0.5-64.2-0.72c-15.66-0.16-31.34-0.29-47-0.31
		c-47.49-0.05-94.98-0.13-142.47,0.13c-0.5,0-0.99,0.01-1.49,0.01c-18.77,0.2-37.54,0.4-56.3,0.6c-9.22,0.1-18.44,0.19-27.66,0.34
		c-13.81,0.22-27.61,0.48-41.41,0.74c-13.81,0.26-27.62,0.5-41.41,0.83c-19.23,0.46-38.45,0.96-57.66,1.51
		c-4.33,0.12-8.79-0.02-12.99,0.58c-7.98-0.08-15.92,0.38-23.9,0.32c-5.28-0.03-10.55,0.06-15.82,0.13
		c-14.98,0.2-29.98,0.25-44.95,0.5c-20.05,0.34-40.1,0.64-60.14,1.02c-20.87,0.4-41.73,0.82-62.59,1.31
		c-27.28,0.63-54.54,1.36-81.79,2.15c-39.45,1.15-78.88,2.44-118.26,3.92c-29.07,1.1-58.13,2.28-87.19,3.42
		C1,428.6,1,340.11,1,251.63z"/>
	<path style="fill:#E8ECEE;" d="M1,232.47c480,0,960,0,1440,0c0,82.92,0,165.85,0,248.77c-0.21,2.08-0.46,4.06-0.62,6.3
		c-1.99,0-3.98,0-5.97,0c-1.13-0.05-2.25-0.11-3.38-0.13c-7.9-0.16-15.79-0.33-23.69-0.48c-42.93-0.82-85.87-1.6-128.84-2.27
		c-35.5-0.55-71.02-1.06-106.54-1.5c-26.46-0.32-52.91-0.64-79.38-0.87c-18.41-0.16-36.81-0.37-55.21-0.52
		c-16.28-0.13-32.58-0.19-48.86-0.32c-21.39-0.18-42.78-0.25-64.17-0.36c-15.66-0.08-31.32-0.14-46.98-0.15
		c-47.46-0.03-94.93-0.07-142.39,0.06c-0.5,0-0.99,0-1.49,0.01c-18.76,0.1-37.52,0.2-56.28,0.3c-9.22,0.05-18.43,0.09-27.65,0.17
		c-13.8,0.11-27.61,0.24-41.41,0.37c-13.81,0.13-27.62,0.25-41.42,0.41c-19.23,0.23-38.46,0.48-57.69,0.75
		c-4.35,0.06-8.77-0.01-13.05,0.29c-7.98-0.04-15.93,0.19-23.9,0.16c-5.27-0.02-10.54,0.03-15.82,0.07
		c-14.98,0.1-29.96,0.12-44.93,0.25c-20.04,0.17-40.09,0.32-60.13,0.51c-20.87,0.2-41.74,0.41-62.6,0.65
		c-27.28,0.32-54.56,0.68-81.83,1.08c-39.48,0.57-78.95,1.22-118.4,1.96c-29.13,0.55-58.24,1.14-87.36,1.71
		C1,403.96,1,318.22,1,232.47z"/>
	<path style="fill:#EAEEF0;" d="M7.1,201.74c12.48-0.09,24.97-0.17,37.45-0.27c13.86-0.1,27.72-0.21,41.58-0.32
		c8.67-0.07,17.34-0.12,26.01-0.19c13.86-0.1,27.72-0.21,41.58-0.31c9.19-0.07,18.39-0.12,27.58-0.19
		c13.17-0.1,26.33-0.22,39.5-0.31c13-0.1,26.01-0.17,39.02-0.26c14.21-0.1,28.42-0.21,42.62-0.32c8.32-0.06,16.65-0.12,24.97-0.18
		c13.17-0.1,26.33-0.22,39.5-0.31c13.35-0.1,26.71-0.17,40.06-0.27c12.99-0.1,25.98-0.22,38.98-0.32
		c13.18-0.1,26.36-0.15,39.54-0.27c16.65-0.15,33.3-0.19,49.95-0.32c8.84-0.07,17.69-0.12,26.53-0.19
		c13.34-0.1,26.68-0.21,40.02-0.31c12.48-0.09,24.97-0.17,37.45-0.27c14.21-0.1,28.42-0.22,42.62-0.32
		c9.54-0.07,19.09-0.08,28.63-0.19c18.56-0.21,37.14-0.3,55.71-0.3c224.87-0.02,449.74-0.01,674.61-0.01c0,81.75,0,163.5,0,245.25
		c-480,0-960,0-1440,0c0-52.53,0-105.06,0-157.59c0.29-3.86,0.57-7.81,0.86-11.69c0.69-9.23,1.38-18.51,2.06-27.78
		C4.98,230.26,6.04,215.99,7.1,201.74z"/>
	<path style="fill:#EBEFF0;" d="M13.2,190.16c12.43-0.19,24.86-0.35,37.29-0.53c13.8-0.2,27.6-0.43,41.4-0.63
		c8.63-0.13,17.26-0.24,25.9-0.37c13.8-0.21,27.6-0.42,41.4-0.63c9.15-0.13,18.31-0.23,27.46-0.37c13.11-0.2,26.21-0.43,39.32-0.63
		c12.95-0.19,25.9-0.34,38.84-0.53c14.15-0.2,28.29-0.43,42.44-0.64c8.29-0.12,16.57-0.24,24.86-0.37
		c13.11-0.21,26.21-0.44,39.32-0.63c13.29-0.19,26.59-0.34,39.88-0.53c12.94-0.19,25.87-0.44,38.8-0.63
		c13.12-0.19,26.25-0.29,39.37-0.53c16.57-0.31,33.16-0.39,49.73-0.64c8.8-0.13,17.61-0.24,26.42-0.37
		c13.28-0.2,26.56-0.43,39.84-0.63c12.43-0.19,24.86-0.35,37.29-0.53c14.15-0.21,28.29-0.43,42.44-0.63
		c9.5-0.13,19.02-0.16,28.5-0.38c18.48-0.42,36.98-0.59,55.47-0.6c223.95-0.05,447.9-0.03,671.86-0.03c0,80.5,0,161,0,241.5
		c-480,0-960,0-1440,0c0-51.75,0-103.51,0-155.26c0.58-3.51,1.14-7.19,1.73-10.73c1.38-8.43,2.75-16.95,4.13-25.44
		C8.97,216.31,11.08,203.22,13.2,190.16z"/>
	<path style="fill:#ECF0F1;" d="M19.3,178.57c12.37-0.28,24.75-0.52,37.12-0.8c13.74-0.31,27.47-0.64,41.21-0.95
		c8.59-0.2,17.19-0.37,25.78-0.56c13.74-0.31,27.47-0.64,41.21-0.94c9.11-0.2,18.23-0.35,27.34-0.56
		c13.05-0.3,26.09-0.65,39.14-0.94c12.89-0.29,25.78-0.52,38.67-0.79c14.08-0.31,28.16-0.64,42.25-0.96
		c8.25-0.19,16.5-0.36,24.75-0.55c13.05-0.31,26.09-0.66,39.14-0.94c13.23-0.29,26.48-0.5,39.71-0.8
		c12.88-0.29,25.75-0.66,38.63-0.95c13.06-0.29,26.14-0.44,39.19-0.8c16.49-0.46,33.01-0.58,49.51-0.95
		c8.77-0.2,17.53-0.36,26.3-0.56c13.22-0.3,26.44-0.64,39.66-0.94c12.37-0.28,24.75-0.52,37.12-0.8
		c14.08-0.31,28.16-0.65,42.25-0.95c9.46-0.2,18.94-0.24,28.38-0.56c18.39-0.63,36.82-0.89,55.23-0.9
		c223.04-0.07,446.07-0.04,669.11-0.04c0,79.25,0,158.5,0,237.75c-480,0-960,0-1440,0c0-50.98,0-101.96,0-152.94
		c0.87-3.16,1.71-6.56,2.59-9.77c2.07-7.62,4.13-15.39,6.19-23.11C12.95,202.37,16.12,190.45,19.3,178.57z"/>
	<path style="fill:#EDF0F2;" d="M25.39,166.99c12.32-0.37,24.64-0.7,36.96-1.07c13.68-0.41,27.35-0.85,41.03-1.27
		c8.55-0.26,17.11-0.49,25.67-0.75c13.68-0.41,27.35-0.85,41.03-1.25c9.07-0.27,18.15-0.46,27.22-0.74
		c12.99-0.4,25.98-0.87,38.97-1.26c12.83-0.38,25.67-0.69,38.5-1.06c14.02-0.41,28.04-0.86,42.06-1.28
		c8.21-0.25,16.43-0.47,24.64-0.73c12.99-0.41,25.98-0.87,38.97-1.26c13.18-0.39,26.36-0.67,39.54-1.07
		c12.82-0.38,25.63-0.88,38.45-1.27c13-0.39,26.03-0.58,39.02-1.07c16.42-0.62,32.87-0.77,49.29-1.27
		c8.73-0.26,17.46-0.48,26.18-0.75c13.16-0.4,26.32-0.85,39.48-1.25c12.32-0.37,24.64-0.7,36.96-1.06
		c14.02-0.41,28.04-0.87,42.06-1.27c9.42-0.27,18.86-0.32,28.25-0.75c18.3-0.84,36.66-1.19,54.98-1.2
		c222.12-0.09,444.24-0.06,666.36-0.06c0,78,0,156,0,234c-480,0-960,0-1440,0c0-50.2,0-100.41,0-150.61
		c1.16-2.8,2.29-5.94,3.46-8.81c2.76-6.82,5.5-13.82,8.25-20.78C16.94,188.42,21.16,177.69,25.39,166.99z"/>
	<path style="fill:#EEF1F2;" d="M31.49,155.41c12.26-0.47,24.53-0.87,36.79-1.33c13.62-0.51,27.23-1.07,40.84-1.59
		c8.52-0.33,17.04-0.61,25.55-0.93c13.62-0.52,27.23-1.06,40.84-1.57c9.03-0.33,18.07-0.58,27.1-0.93
		c12.93-0.5,25.86-1.08,38.79-1.57c12.77-0.48,25.56-0.86,38.33-1.32c13.96-0.51,27.91-1.07,41.87-1.6
		c8.18-0.31,16.35-0.59,24.53-0.92c12.93-0.51,25.86-1.09,38.79-1.57c13.12-0.49,26.24-0.84,39.36-1.33
		c12.76-0.48,25.51-1.1,38.28-1.58c12.95-0.49,25.92-0.73,38.85-1.34c16.34-0.77,32.72-0.97,49.08-1.59
		c8.69-0.33,17.38-0.6,26.07-0.93c13.1-0.51,26.2-1.06,39.3-1.56c12.26-0.47,24.53-0.87,36.79-1.33
		c13.96-0.52,27.91-1.08,41.87-1.59c9.37-0.34,18.78-0.4,28.13-0.94c18.22-1.05,36.5-1.48,54.74-1.49
		c221.2-0.11,442.4-0.07,663.61-0.07c0,76.75,0,153.5,0,230.25c-480,0-960,0-1440,0c0-49.43,0-98.86,0-148.28
		c1.46-2.45,2.86-5.32,4.32-7.85c3.46-6,6.88-12.26,10.32-18.45C20.92,174.48,26.21,164.92,31.49,155.41z"/>
	<path style="fill:#EFF2F3;" d="M37.59,143.83c12.21-0.56,24.42-1.04,36.63-1.6c13.55-0.61,27.1-1.28,40.66-1.9
		c8.48-0.39,16.96-0.73,25.44-1.12c13.55-0.62,27.1-1.27,40.66-1.88c8.99-0.4,17.99-0.7,26.97-1.11c12.87-0.6,25.74-1.3,38.61-1.88
		c12.72-0.58,25.44-1.03,38.16-1.59c13.9-0.61,27.79-1.28,41.68-1.92c8.14-0.37,16.28-0.71,24.42-1.1
		c12.87-0.62,25.74-1.31,38.61-1.89c13.06-0.58,26.13-1.01,39.19-1.6c12.71-0.57,25.4-1.32,38.1-1.9
		c12.89-0.58,25.81-0.87,38.67-1.6c16.27-0.93,32.58-1.16,48.86-1.91c8.65-0.4,17.3-0.72,25.95-1.12
		c13.04-0.61,26.08-1.28,39.13-1.88c12.21-0.56,24.42-1.05,36.63-1.6c13.89-0.62,27.78-1.3,41.68-1.9c9.33-0.4,18.7-0.49,28-1.13
		c18.13-1.26,36.34-1.78,54.5-1.79c220.29-0.14,440.57-0.09,660.86-0.09c0,75.5,0,151,0,226.5c-480,0-960,0-1440,0
		c0-48.65,0-97.3,0-145.96c1.75-2.09,3.44-4.69,5.19-6.88c4.15-5.2,8.26-10.7,12.38-16.11C24.91,160.53,31.25,152.15,37.59,143.83z"
		/>
	<path style="fill:#EFF3F4;" d="M43.69,132.24c12.15-0.65,24.31-1.22,36.46-1.87c13.49-0.72,26.98-1.49,40.47-2.22
		c8.44-0.46,16.88-0.85,25.32-1.31c13.49-0.72,26.98-1.49,40.48-2.19c8.95-0.47,17.91-0.81,26.85-1.3
		c12.82-0.7,25.62-1.52,38.44-2.2c12.66-0.67,25.33-1.2,37.99-1.85c13.83-0.71,27.66-1.5,41.49-2.24c8.1-0.44,16.21-0.83,24.31-1.28
		c12.81-0.72,25.62-1.53,38.44-2.2c13-0.68,26.01-1.18,39.01-1.86c12.65-0.67,25.28-1.55,37.93-2.22c12.83-0.68,25.7-1.02,38.5-1.87
		c16.19-1.08,32.44-1.36,48.64-2.23c8.61-0.46,17.23-0.84,25.83-1.31c12.98-0.71,25.96-1.49,38.95-2.19
		c12.15-0.65,24.31-1.22,36.46-1.86c13.83-0.73,27.66-1.52,41.49-2.22c9.29-0.47,18.63-0.57,27.87-1.32
		c18.05-1.47,36.18-2.08,54.26-2.09c219.37-0.16,438.74-0.1,658.11-0.1c0,74.25,0,148.5,0,222.75c-480,0-960,0-1440,0
		c0-47.88,0-95.75,0-143.63c2.04-1.74,4.01-4.07,6.05-5.92c4.83-4.39,9.63-9.14,14.44-13.78C28.89,146.59,36.29,139.38,43.69,132.24
		z"/>
	<path style="fill:#F0F4F4;" d="M49.79,120.66c12.1-0.75,24.2-1.39,36.3-2.13c13.43-0.82,26.86-1.71,40.29-2.54
		c8.4-0.52,16.81-0.98,25.21-1.49c13.43-0.82,26.86-1.7,40.29-2.5c8.91-0.53,17.83-0.93,26.73-1.48c12.76-0.79,25.5-1.73,38.26-2.51
		c12.6-0.77,25.22-1.37,37.82-2.12c13.77-0.81,27.53-1.71,41.3-2.56c8.06-0.5,16.13-0.95,24.2-1.47c12.75-0.82,25.5-1.75,38.26-2.52
		c12.94-0.78,25.9-1.34,38.84-2.13c12.59-0.77,25.16-1.77,37.75-2.53c12.77-0.78,25.58-1.16,38.33-2.14
		c16.12-1.24,32.29-1.55,48.42-2.55c8.57-0.53,17.15-0.96,25.72-1.49c12.93-0.81,25.84-1.7,38.77-2.5c12.1-0.75,24.2-1.4,36.3-2.13
		c13.77-0.83,27.53-1.73,41.3-2.54c9.25-0.54,18.55-0.65,27.75-1.5c17.96-1.68,36.02-2.38,54.02-2.39
		c218.45-0.18,436.9-0.12,655.36-0.12c0,73,0,146,0,219c-480,0-960,0-1440,0c0-47.1,0-94.2,0-141.3c2.33-1.39,4.58-3.44,6.91-4.96
		c5.52-3.58,11.01-7.57,16.5-11.45C32.88,132.64,41.33,126.61,49.79,120.66z"/>
	<path style="fill:#F1F4F5;" d="M55.89,109.08c12.04-0.84,24.09-1.57,36.13-2.4c13.37-0.92,26.73-1.92,40.1-2.86
		c8.36-0.59,16.73-1.1,25.09-1.68c13.37-0.93,26.74-1.91,40.11-2.82c8.87-0.6,17.75-1.04,26.61-1.67
		c12.7-0.89,25.38-1.95,38.08-2.82c12.54-0.86,25.1-1.55,37.65-2.38c13.71-0.92,27.41-1.93,41.11-2.88
		c8.03-0.56,16.06-1.07,24.09-1.65c12.7-0.93,25.38-1.97,38.08-2.83c12.88-0.87,25.78-1.51,38.66-2.4
		c12.53-0.86,25.04-1.99,37.58-2.85c12.71-0.87,25.47-1.31,38.15-2.41c16.04-1.39,32.15-1.74,48.2-2.86
		c8.53-0.6,17.07-1.08,25.6-1.68c12.87-0.91,25.72-1.92,38.59-2.82c12.04-0.84,24.09-1.57,36.13-2.39
		c13.71-0.93,27.41-1.95,41.11-2.85c9.2-0.61,18.47-0.73,27.62-1.69c17.87-1.89,35.86-2.67,53.78-2.69
		c217.54-0.2,435.07-0.13,652.61-0.13c0,71.75,0,143.5,0,215.25c-480,0-960,0-1440,0c0-46.33,0-92.65,0-138.98
		c2.62-1.03,5.14-2.83,7.78-4c6.2-2.79,12.38-6.01,18.57-9.12C36.86,118.7,46.37,113.84,55.89,109.08z"/>
	<path style="fill:#F2F5F6;" d="M61.99,97.5c11.99-0.93,23.98-1.74,35.97-2.66c13.31-1.02,26.61-2.13,39.92-3.17
		c8.32-0.65,16.66-1.22,24.98-1.86c13.31-1.03,26.61-2.12,39.92-3.13c8.83-0.67,17.67-1.16,26.49-1.85
		c12.64-0.99,25.26-2.17,37.91-3.14c12.49-0.96,24.99-1.72,37.48-2.65c13.65-1.02,27.28-2.14,40.92-3.2
		c7.99-0.62,15.99-1.18,23.98-1.83c12.64-1.03,25.26-2.19,37.91-3.14c12.82-0.97,25.67-1.68,38.49-2.66
		c12.48-0.96,24.92-2.21,37.4-3.16c12.65-0.97,25.36-1.45,37.98-2.67c15.97-1.55,32.01-1.94,47.99-3.18
		c8.49-0.66,16.99-1.2,25.48-1.87c12.81-1.01,25.6-2.13,38.41-3.13c11.98-0.93,23.98-1.75,35.97-2.66
		c13.64-1.04,27.28-2.17,40.93-3.17c9.16-0.67,18.39-0.81,27.5-1.88c17.79-2.1,35.7-2.97,53.54-2.99
		c216.62-0.23,433.24-0.15,649.86-0.15c0,70.5,0,141,0,211.5c-480,0-960,0-1440,0c0-45.55,0-91.1,0-136.65
		c2.91-0.68,5.72-2.2,8.64-3.04c6.89-1.99,13.76-4.45,20.63-6.78C40.85,104.75,51.41,101.07,61.99,97.5z"/>
	<path style="fill:#F3F6F6;" d="M68.08,85.92c11.93-1.03,23.87-1.92,35.8-2.93c13.25-1.13,26.49-2.35,39.73-3.49
		c8.29-0.72,16.58-1.34,24.87-2.05c13.25-1.13,26.49-2.34,39.74-3.44c8.79-0.73,17.59-1.28,26.37-2.04
		c12.58-1.09,25.15-2.38,37.73-3.45c12.43-1.06,24.88-1.89,37.31-2.91c13.58-1.12,27.16-2.35,40.73-3.52
		c7.95-0.68,15.91-1.3,23.86-2.02c12.58-1.13,25.14-2.4,37.73-3.46c12.76-1.07,25.55-1.85,38.31-2.93
		c12.42-1.05,24.81-2.43,37.23-3.48c12.6-1.07,25.25-1.6,37.81-2.94c15.89-1.7,31.86-2.13,47.77-3.5
		c8.45-0.73,16.92-1.32,25.37-2.05c12.75-1.11,25.48-2.34,38.23-3.44c11.93-1.03,23.87-1.92,35.8-2.92
		c13.58-1.14,27.15-2.38,40.74-3.49c9.12-0.74,18.32-0.89,27.37-2.07c17.7-2.3,35.54-3.27,53.3-3.29
		c215.7-0.25,431.4-0.16,647.11-0.16c0,69.25,0,138.5,0,207.75c-480,0-960,0-1440,0c0-44.78,0-89.55,0-134.33
		c3.2-0.32,6.29-1.58,9.51-2.08c7.58-1.18,15.14-2.89,22.69-4.45C44.83,90.81,56.45,88.3,68.08,85.92z"/>
	<path style="fill:#F4F7F7;" d="M1441,213.32c-480,0-960,0-1440,0c0-44,0-88,0-132c3.49,0.03,6.86-0.96,10.37-1.12
		c8.27-0.38,16.51-1.32,24.76-2.12c12.69-1.22,25.36-2.55,38.05-3.75c11.87-1.12,23.76-2.09,35.64-3.2
		c13.19-1.23,26.36-2.56,39.55-3.81c8.25-0.78,16.5-1.46,24.75-2.24c13.19-1.24,26.37-2.55,39.55-3.76
		c8.75-0.8,17.51-1.39,26.25-2.22c12.52-1.19,25.03-2.6,37.55-3.77c12.37-1.15,24.77-2.06,37.14-3.18
		c13.52-1.22,27.03-2.57,40.55-3.84c7.92-0.75,15.84-1.42,23.75-2.2c12.52-1.23,25.03-2.62,37.55-3.77
		c12.7-1.17,25.44-2.02,38.14-3.2c12.36-1.15,24.69-2.65,37.05-3.8c12.54-1.17,25.14-1.74,37.64-3.21
		c15.81-1.86,31.72-2.32,47.55-3.82c8.41-0.79,16.84-1.44,25.25-2.24c12.69-1.21,25.36-2.56,38.05-3.75
		c11.87-1.12,23.76-2.1,35.64-3.19c13.52-1.24,27.03-2.6,40.55-3.81c9.08-0.81,18.24-0.97,27.24-2.26
		c17.62-2.51,35.38-3.56,53.06-3.59c214.79-0.27,429.57-0.18,644.36-0.18C1441,77.32,1441,145.32,1441,213.32z"/>
</g>
<path style="fill:#E9EDEF;" d="M468.04,737.36c-0.29,1.71-1.62,1.73-2.98,2.03c-40.28,8.81-80.04,19.54-119.34,32.06
	c-33.31,10.61-65.67,23.78-98.64,35.28c-21.68,7.56-43.63,14.24-65.71,20.53c-23.96,6.82-48.18,12.63-72.6,17.53
	c-19,3.82-38.1,7.14-57.35,9.61c-16.77,2.15-33.47,4.8-50.43,4.93c0-13.67,0-27.33,0-41c28.44-7.42,56.83-15.07,85.35-22.21
	c38.63-9.67,77.56-18.05,116.67-25.5c27.01-5.15,54.11-9.89,81.3-14c20.78-3.14,41.63-5.91,62.5-8.49
	c20.05-2.48,40.15-4.4,60.22-6.61c14.98-1.65,30.1-2.01,45.12-3.28C457.45,737.78,462.72,737.14,468.04,737.36z"/>
<path style="fill:#E9EDEF;" d="M1441,792.32c-2.86,0.07-5.66-0.07-8-2.04c1.98-2.83,5.23-2.26,8-2.96
	C1441,788.99,1441,790.65,1441,792.32z"/>
<path style="fill:#E9EDEF;" d="M1427,790.29c-10.8,4.92-22.47,6.95-33.84,9.9c-23.61,6.12-47.61,10.48-71.74,13.87
	c-14.74,2.07-29.68,2.83-44.49,4.44c-30.68,3.33-61.43,3.28-92.15,2.59c-18.19-0.41-36.39-1.82-54.57-3.53
	c-24.59-2.31-49.07-5.41-73.4-9.45c-20.44-3.39-40.77-7.46-61.01-11.97c-35.51-7.92-70.26-18.79-105.69-26.99
	c-30.54-7.07-61.27-13.07-92.24-17.99c-21.27-3.38-42.6-6.29-63.98-8.62c-16.78-1.83-33.63-3.33-50.51-4.37
	c-19.05-1.17-38.09-2.15-57.15-3.03c-36.29-1.67-72.58-0.57-108.87-0.56c-8.41,0-16.92,0.55-25.38,0.7
	c3.24-3.92,8.13-3.01,12.25-3.78c19.05-3.55,38.17-6.82,57.32-9.78c13.74-2.13,27.57-3.69,41.38-5.39
	c13.8-1.7,27.61-3.38,41.44-4.82c9.23-0.96,18.5-1.52,27.76-2.18c18.85-1.34,37.7-2.61,56.55-3.92c0.5-0.03,1-0.06,1.5-0.08
	c47.78-1.67,95.58-1.17,143.37-0.82c15.74,0.11,31.54,0.94,47.26,1.99c21.49,1.43,43.02,2.41,64.45,4.7
	c16.31,1.74,32.72,2.49,49.03,4.22c18.44,1.95,36.79,4.67,55.21,6.74c26.51,2.99,52.86,7.07,79.19,11.26
	c35.36,5.63,70.54,12.34,105.64,19.45c42.49,8.61,84.61,18.76,126.61,29.45c7.73,1.97,15.42,4.08,23.1,6.22
	C1425.11,788.84,1426.02,789.69,1427,790.29z"/>
</svg>
